PathFileType	4	(X/Y/Z)	OpenSim_Sub04_EMGBaseline_Magnet.trc
DataRate	CameraRate	NumFrames	NumMarkers	Units	OrigDataRate	OrigDataStartFrame	OrigNumFrames
100	100	33	8	m	100	5956	7941
Frame#	Time	torso_imu_offset_imu	pelvis_imu_offset_imu	tibia_r_imu_offset_imu	femur_r_imu_offset_imu	tibia_l_imu_offset_imu	femur_l_imu_offset_imu	toes_r_imu_offset_imu	toes_l_imu_offset_imu
				X1	Y1	Z1	X2	Y2	Z2	X3	Y3	Z3	X4	Y4	Z4	X5	Y5	Z5	X6	Y6	Z6	X7	Y7	Z7	X8		Y8	Z8	

5956	59.55000000	0.90995219	0.23518807	-0.16742311	-0.63350544	0.23656231	-0.63580578	-0.42323010	-0.67328925	-0.16726048	-0.86193912	-0.07440674	0.03205558	-0.58285230	0.50761205	0.29364850	-0.62414099	0.25149538	0.48532972	-0.72462512	-0.24470215	-0.25102238	-0.65433908	-0.39594067	-0.29473083
5957	59.56000000	0.90917364	0.24003686	-0.16949371	-0.63688888	0.23149498	-0.64183871	-0.44425267	-0.65947386	-0.17677664	-0.85704359	-0.07669052	0.03089053	-0.57809825	0.51148121	0.29215679	-0.61891198	0.25560217	0.48457854	-0.71990175	-0.22973198	-0.27038886	-0.66006970	-0.39116372	-0.28996158
5958	59.57000000	0.90819145	0.23761113	-0.16575944	-0.63443446	0.22636212	-0.63837634	-0.47180063	-0.63405083	-0.17707537	-0.85400479	-0.07860693	0.02450084	-0.58004155	0.51618960	0.29273537	-0.62052990	0.26056314	0.48827083	-0.71110482	-0.21858281	-0.30235915	-0.65762798	-0.38990809	-0.30276656
5959	59.58000000	0.91242403	0.23738392	-0.16321861	-0.63454574	0.23345471	-0.63998003	-0.49723847	-0.61693637	-0.18434053	-0.85643155	-0.07797089	0.02548213	-0.57893130	0.51983711	0.28647487	-0.61314302	0.26197098	0.48563254	-0.70107639	-0.20933961	-0.32647175	-0.66059843	-0.38829147	-0.29890136
5960	59.59000000	0.91157582	0.23588507	-0.16665607	-0.62926978	0.22704133	-0.64446105	-0.51529698	-0.59814440	-0.19559868	-0.85876844	-0.07978993	0.02441150	-0.56793275	0.52321393	0.28939676	-0.61062929	0.27329626	0.48926767	-0.69333210	-0.19474868	-0.35165188	-0.66290044	-0.38404953	-0.30013642
5961	59.60000000	0.91005808	0.23750278	-0.16237202	-0.62926777	0.23006712	-0.64635783	-0.53804354	-0.57093047	-0.19951064	-0.85917275	-0.08724391	0.02026245	-0.57125580	0.53154983	0.29075634	-0.60986294	0.27561224	0.49184785	-0.68485688	-0.18478885	-0.37475324	-0.66157922	-0.38932864	-0.30164505
5962	59.61000000	0.90873598	0.23602646	-0.16164281	-0.63124506	0.22860905	-0.64913750	-0.55470103	-0.55208217	-0.20021116	-0.85578561	-0.09041619	0.02173768	-0.56102658	0.53297361	0.28941199	-0.60221336	0.27734887	0.48822879	-0.67483398	-0.17410827	-0.39604556	-0.66135849	-0.38202758	-0.29896281
5963	59.62000000	0.90327240	0.24016581	-0.15582776	-0.62398654	0.22539467	-0.65019596	-0.57936070	-0.53394653	-0.20782564	-0.85696652	-0.09971601	0.02317773	-0.56349210	0.53929613	0.28552916	-0.59831669	0.28524276	0.49319831	-0.66390790	-0.16423188	-0.41137649	-0.67047753	-0.38093215	-0.30103166
5964	59.63000000	0.90899180	0.24007727	-0.15577875	-0.63119796	0.22771520	-0.64905525	-0.59183378	-0.51245547	-0.22047939	-0.85293003	-0.09970579	0.01834574	-0.55249796	0.54898753	0.28762622	-0.60251665	0.28522330	0.49130213	-0.65254510	-0.15566755	-0.43166855	-0.67520004	-0.37808721	-0.30208986
5965	59.64000000	0.91187370	0.23930504	-0.15484674	-0.62625853	0.22406115	-0.65282134	-0.60656305	-0.49899230	-0.22307235	-0.85263326	-0.10566476	0.01631119	-0.54713266	0.55193419	0.28679356	-0.59937521	0.28937701	0.49254720	-0.64653714	-0.14474216	-0.44712950	-0.68096562	-0.37377544	-0.29439974
5966	59.65000000	0.91302759	0.23515715	-0.15727844	-0.61897790	0.21881587	-0.65404252	-0.61753663	-0.47630627	-0.23029973	-0.85151156	-0.10576818	0.01488450	-0.54960862	0.56024195	0.28716501	-0.59793632	0.29322225	0.50386506	-0.63592545	-0.13602533	-0.46686287	-0.68190752	-0.37238736	-0.30668228
5967	59.66000000	0.91558315	0.23632348	-0.14813867	-0.62240112	0.21922864	-0.65865161	-0.62772121	-0.46232002	-0.22964136	-0.85204158	-0.10968410	0.01732535	-0.53950759	0.56235048	0.28822691	-0.59442243	0.30245737	0.49542137	-0.62845307	-0.13641214	-0.47692506	-0.69176046	-0.37165128	-0.29492756
5968	59.67000000	0.91263816	0.23777629	-0.14742472	-0.62351088	0.21971321	-0.64996319	-0.63501562	-0.44551601	-0.23165488	-0.84670210	-0.10963625	0.01712332	-0.54232660	0.56965479	0.28338767	-0.58745368	0.30016760	0.49476362	-0.62187823	-0.13352245	-0.49140515	-0.69679700	-0.36781991	-0.29121276
5969	59.68000000	0.91850401	0.23496634	-0.15034861	-0.62135885	0.22064124	-0.65653172	-0.64582922	-0.43524644	-0.23836903	-0.85156885	-0.11134883	0.02093551	-0.53349725	0.57561320	0.28350281	-0.59214827	0.30570433	0.49682762	-0.61419114	-0.12916304	-0.49821642	-0.69817649	-0.36817787	-0.29569400
5970	59.69000000	0.91364110	0.23090920	-0.14979758	-0.62123724	0.21678068	-0.65961217	-0.65113719	-0.43039154	-0.23692061	-0.85363700	-0.11196972	0.02672133	-0.52363600	0.58030111	0.28311379	-0.58912388	0.31229307	0.49629302	-0.60989286	-0.12182881	-0.50290343	-0.70993557	-0.36845260	-0.29092348
5971	59.70000000	0.91491401	0.23235224	-0.14272379	-0.61808190	0.21319496	-0.66027181	-0.65287925	-0.42016439	-0.23351196	-0.85419742	-0.11581360	0.02733208	-0.51945795	0.58682793	0.28253191	-0.58429413	0.31785391	0.49752746	-0.60488248	-0.11530270	-0.50902383	-0.71470797	-0.36694496	-0.28037817
5972	59.71000000	0.91585714	0.23582333	-0.14714296	-0.61831517	0.20409444	-0.66341979	-0.65353699	-0.41702100	-0.23339495	-0.84762052	-0.11554215	0.03096291	-0.51297974	0.59449125	0.27866482	-0.57875187	0.31766510	0.50054306	-0.60491140	-0.11401952	-0.51319790	-0.71961697	-0.36196974	-0.27620005
5973	59.72000000	0.91492278	0.23340051	-0.14172635	-0.62502546	0.20665454	-0.65882173	-0.65841230	-0.41501323	-0.22857912	-0.84664010	-0.11866868	0.02889740	-0.50974406	0.60427971	0.27229176	-0.57865375	0.32471367	0.49643860	-0.60350796	-0.10781290	-0.51635581	-0.73446292	-0.36679572	-0.26943407
5974	59.73000000	0.91833207	0.23353990	-0.14382996	-0.61881148	0.20419999	-0.66252874	-0.66150272	-0.41578217	-0.22355053	-0.84890544	-0.12178586	0.03581756	-0.50641309	0.60618922	0.27308499	-0.57457005	0.33538870	0.49875511	-0.60499722	-0.11376799	-0.51363675	-0.73427297	-0.36246493	-0.26125198
5975	59.74000000	0.91327890	0.23051928	-0.14585618	-0.62353546	0.20129097	-0.66610334	-0.65551297	-0.42068018	-0.22083012	-0.85081392	-0.12308550	0.04285708	-0.49757371	0.61395510	0.27463145	-0.57247714	0.33318131	0.49495266	-0.60355438	-0.11142994	-0.51182095	-0.73700394	-0.35493361	-0.24529848
5976	59.75000000	0.91324199	0.22710676	-0.14073725	-0.61940696	0.19528637	-0.66639835	-0.65083998	-0.42684187	-0.22042848	-0.84979859	-0.13097304	0.04118622	-0.49104248	0.62199286	0.27312955	-0.57132587	0.34087871	0.48893858	-0.60813567	-0.11671357	-0.50614821	-0.74739915	-0.35889541	-0.23473356
5977	59.76000000	0.91970994	0.22693089	-0.14671446	-0.61382687	0.19372260	-0.67095760	-0.65156981	-0.43430527	-0.20750210	-0.84885634	-0.12951664	0.04592933	-0.48210146	0.62621359	0.26874743	-0.57365074	0.34734279	0.48980506	-0.61926586	-0.11993816	-0.49230380	-0.75285816	-0.36224512	-0.22317020
5978	59.77000000	0.92060070	0.22519597	-0.14193232	-0.61379096	0.18823352	-0.66941882	-0.64239528	-0.44676135	-0.20813256	-0.84938711	-0.12799627	0.04518128	-0.47236843	0.63367209	0.26915804	-0.57418830	0.35289159	0.48881605	-0.63547416	-0.11759430	-0.47865894	-0.76528607	-0.36025104	-0.20882752
5979	59.78000000	0.91840866	0.22394729	-0.14560499	-0.61485324	0.18053834	-0.66793064	-0.63818546	-0.45776022	-0.20133467	-0.84384593	-0.13098002	0.04582509	-0.46088716	0.64218391	0.27015865	-0.57937731	0.35540513	0.48400076	-0.63873555	-0.11623527	-0.46481236	-0.76779103	-0.35982947	-0.19082963
5980	59.79000000	0.91954452	0.21880346	-0.15256102	-0.62033873	0.17901866	-0.66923595	-0.63091256	-0.47233669	-0.19343093	-0.84573807	-0.13480799	0.04815907	-0.45470670	0.64950202	0.27065478	-0.58269144	0.36216718	0.47875866	-0.65185267	-0.11995447	-0.44781647	-0.77976119	-0.35543659	-0.17204825
5981	59.80000000	0.92405117	0.22028196	-0.15358987	-0.61750049	0.17728563	-0.66512375	-0.62571438	-0.48169215	-0.19337476	-0.84077906	-0.13668633	0.05161644	-0.44144848	0.65995422	0.27367009	-0.58075541	0.36522096	0.46922306	-0.65183497	-0.12837335	-0.43843444	-0.78500819	-0.35063116	-0.15320987
5982	59.81000000	0.92482580	0.21381055	-0.14714584	-0.61831785	0.17301022	-0.67094121	-0.62501388	-0.48730246	-0.18696676	-0.83695965	-0.14196646	0.05798677	-0.44049923	0.66326250	0.26692042	-0.58393561	0.36995218	0.46069312	-0.66363826	-0.13012314	-0.42290228	-0.78502047	-0.34525633	-0.13844485
5983	59.82000000	0.92114802	0.21534308	-0.15483297	-0.61964268	0.16179914	-0.67387584	-0.62127580	-0.49103216	-0.17953113	-0.83523982	-0.14978663	0.06551662	-0.42401673	0.66937279	0.26330108	-0.58877913	0.38043228	0.45808999	-0.67309932	-0.12555562	-0.41297522	-0.78762202	-0.34863210	-0.11315695
5984	59.83000000	0.92341791	0.21612761	-0.15179681	-0.61623158	0.16183028	-0.67441619	-0.62347099	-0.49309449	-0.17905141	-0.83790441	-0.15385129	0.08220243	-0.41357005	0.67915202	0.27314533	-0.59290054	0.37268717	0.45567323	-0.67924326	-0.12916073	-0.39304314	-0.79262348	-0.34629713	-0.09058386
5985	59.84000000	0.92074999	0.21274593	-0.16275965	-0.61369393	0.15565073	-0.67513398	-0.61978988	-0.49867658	-0.16795374	-0.83836774	-0.16054122	0.08391470	-0.40032979	0.68154579	0.26891018	-0.59726610	0.37490332	0.44290025	-0.68541558	-0.12542181	-0.38574475	-0.79643776	-0.33903823	-0.06276636
5986	59.85000000	0.91917627	0.21418639	-0.16126380	-0.61691884	0.15630133	-0.67224213	-0.61380801	-0.50896974	-0.15823672	-0.83144025	-0.16624637	0.09145368	-0.38865317	0.69110671	0.26665806	-0.60235476	0.37782748	0.44140471	-0.69226643	-0.13122208	-0.37160030	-0.79610831	-0.34219858	-0.03356799
5987	59.86000000	0.92258291	0.21003475	-0.16149539	-0.61353222	0.15328283	-0.68200395	-0.61156876	-0.51489687	-0.15583625	-0.82821585	-0.17015308	0.09649176	-0.37019913	0.69982816	0.26715454	-0.60823636	0.37307387	0.43276053	-0.69868332	-0.14003932	-0.35924922	-0.79597136	-0.33788709	-0.00361213
5988	59.87000000	0.92470952	0.21047635	-0.16114159	-0.61982769	0.15029161	-0.68132617	-0.60355114	-0.52446911	-0.14797561	-0.82814300	-0.17472482	0.10587718	-0.35363040	0.70809982	0.26985956	-0.61355494	0.37102050	0.41981225	-0.69606162	-0.15047135	-0.35678701	-0.79349948	-0.33041919	0.03067230
